<svg fill="none" height="278" viewBox="0 0 1455 278" width="1455" xmlns="http://www.w3.org/2000/svg"><g fill="#ec4015"><path d="m1393.03 7.36008c-17.82 14.35842-36.6 25.33832-98.62 57.79552-33.96 17.7368-56.6 30.406-72.97 41.1444l-10.84 6.998-.36-49.5903c-.24-45.609-.36-49.3494-2.29-47.9015-1.56 1.4479-2.05 1.3272-3.13-.362-1.2-1.8099-1.44-1.8099-2.77 0-1.2 1.6892-1.69 1.6892-3.49.2413-1.69-1.4479-2.17-1.4479-3.01 0-.84 1.3273-1.33 1.3273-2.89.1207-1.57-1.3273-2.29-1.3273-3.86 0-1.56 1.2066-2.04 1.2066-3.01-.2413-.96-1.4479-1.2-1.4479-2.28.1206-1.09 1.5686-1.45 1.5686-2.77-.2413-1.45-1.8099-1.69-1.8099-3.01 0-1.33 1.9306-1.45 1.9306-3.01 0-1.57-1.9305-1.81-1.9305-3.62-.1206-1.92 1.9305-2.16 1.9305-3.49.1206-1.44-1.8099-6.62-2.7751-12.04-2.2925-2.05.1207-2.17 4.2231-2.17 67.3275 0 37.0418.36 94.5968.85 127.8978.6 50.436 1.08 60.45 2.4 59.364 1.09-.965 2.05-.965 3.13 0 1.21.966 2.05.845 3.01-.12.97-.965 1.81-.965 3.26.241 1.32 1.086 2.28 1.207 3.37.121 1.2-.965 2.04-.845 3.01.12.96.966 1.8.966 3.25-.241 1.32-1.086 2.17-1.206 3.49-.121 1.33 1.086 1.81 1.086 2.17-.12.48-1.207.96-1.207 2.41-.121 1.32 1.086 2.04 1.207 3.13.121.96-.965 1.8-.965 3.25.241 1.44 1.207 2.17 1.207 3.61 0 1.45-1.206 2.29-1.206 3.25-.241.97.965 1.93.844 3.37-.121 1.69-.965 2.65-.965 3.86.121 1.32 1.086 2.05 1.086 3.13 0 .96-.965 1.93-.965 3.37.362 1.93 1.448 2.05 1.448 1.45-.242-1.21-3.016-2.65-109.678-1.57-109.678.48 0 8.55 4.826 17.94 10.738 16.62 10.377 39.98 24.253 92.84 55.021 30.95 17.978 56 34.387 70.81 46.333 9.15 7.36 10.84 8.325 13.37 7.36 1.56-.603 3.25-1.689 3.73-2.293.36-.724 1.8-1.327 3.01-1.327 1.2 0 2.77-.845 3.37-2.051.72-1.207 1.93-1.689 3.13-1.207 1.08.483 3.85-.241 6.14-1.568 2.29-1.328 5.06-2.051 6.02-1.69.97.483 1.81.121 1.81-.723 0-.966 1.08-1.328 2.89-.966 1.93.362 3.25 0 3.61-1.086.48-1.086 1.57-1.448 3.01-.965 1.45.362 2.53 0 3.01-1.207.48-1.327 1.57-1.689 3.13-1.206 1.45.483 2.41.241 2.41-.603 0-.845.97-1.207 2.41-.845 2.05.483 2.17.241 1.08-1.81-2.16-4.102-16.85-18.219-28.78-27.751-21.91-17.375-57.07-40.783-120.65-80.118-11.8-7.239-21.44-13.755-21.44-14.479s12.04-8.325 26.86-16.892c73.21-42.3512 95.37-56.1062 116.08-71.5506 11.68-8.808 22.27-18.3401 25.65-23.1664 2.52-3.3785 2.52-3.3785.12-5.7916-1.57-1.5686-2.65-1.9306-3.5-1.086-.84.8446-1.8.4827-2.77-1.2066-1.2-2.0511-1.92-2.2925-3.25-1.0859-1.32 1.0859-2.04.8446-3.25-.7239-.72-1.086-1.8-1.6893-2.17-1.3273-.36.4827-1.68.362-2.89-.1206-1.2-.6033-3.13-.8446-4.21-.724-1.2.1207-2.17-.362-2.17-1.0859 0-.8446-.72-1.2066-1.68-.8446-.97.362-2.41-.12068-3.25-1.08595-.73-.96527-2.41-1.44791-3.62-1.08593-1.08.36198-2.53 0-3.13-.84461-.96-1.56856-11.2-6.99820327-13.12-6.99820327-.61 0-5.18 3.37844327-10.12 7.36017327zm-179.9 113.66092c.96.482 1.68 1.689 1.68 2.533 0 .966.85 1.931 1.81 2.414 2.05.723 2.53 4.343.6 4.343-.6 0-1.2.845-1.2 1.81 0 1.086-.84 2.172-1.81 2.534-.96.483-1.8 1.448-1.8 2.292 0 .966-.49 2.052-1.21 2.414-.72.482-1.2-3.499-1.08-11.101 0-6.516.36-10.98.72-10.015.36.966 1.45 2.293 2.29 2.776z"/><path d="m843.677 4.16973c-28.317 9.39517-41.947 16.67307-49.622 26.72987-10.321 13.4973-24.48 42.6091-24.48 50.0193 0 2.2496.794 2.6466 5.028 2.2496 2.647-.2647 5.822 0 7.013.6616 1.456.794 2.779.397 3.97-.9263 1.588-1.8525 1.853-1.8525 3.441.2647 1.191 1.7202 2.117 1.8525 3.44.7939 1.323-1.1909 2.117-1.1909 3.308 0 1.059 1.0586 1.985 1.0586 3.441-.1323 1.323-1.1909 2.117-1.1909 2.779-.1323.529.7939 1.852 1.1909 2.911.7939 1.191-.5293 2.911-.1323 3.837.6617 1.324 1.0586 2.382 1.1909 3.573 0 3.573-2.7789 4.764 1.1909 1.456 4.4991-1.588 1.4555-2.647 1.7202-3.838.6616-1.323-1.0586-1.985-1.0586-2.646 0-.662 1.0586-1.456 1.0586-2.779-.1323-1.323-1.0586-2.25-1.191-3.705 0-1.324 1.1909-2.118 1.0586-3.441-.5293-1.455-1.7203-1.852-1.7203-3.573.1323-1.588 1.4556-2.381 1.5879-3.837.397-1.456-1.191-2.382-1.0586-3.838.1323-1.587 1.3233-2.381 1.3233-3.969 0-1.059-.9263-2.647-1.0586-3.573-.5293-.926.6616-2.647.9263-3.838.7939-1.852-.2646-2.117 4.4991-2.911 44.3293-.529 24.613-.529 46.05-.132 47.637.529 2.118 1.985 3.044 5.028 3.309 3.441.264 4.632 1.455 7.146 6.484 2.779 5.557 3.043 8.336 3.44 27.788.53 29.773 1.985 32.817 20.643 41.418 12.836 5.823 40.889 15.35 45.388 15.35 2.647 0 3.573-.662 3.573-2.646 0-2.912 1.985-3.573 3.44-1.059.53.794.265 1.852-.529 2.117-.926.265-1.588.926-1.588 1.323 0 .53 33.346.927 74.103.927h74.104l.79-3.838c.4-2.117.27-4.102-.39-4.631-.8-.397-1.2-12.174-1.2-27.789l.27-26.862-12.704.926c-15.35 1.059-99.906 1.059-119.094-.132-19.584-1.059-22.627-2.117-29.111-9.527-5.426-6.087-5.558-6.352-4.764-13.365.794-6.352.662-6.881-1.191-5.426-1.191.927-2.382 1.323-2.779 1.059-.926-1.059-1.588-25.01-1.852-67.884-.133-20.3777-.133-37.7125-.133-38.5064.133-.9263 3.838-4.6315 8.337-8.3366 13.762-11.2477 11.644-10.9831 95.01-10.4538l72.381.397.13-3.9698c0-2.1172-.53-4.6314-1.32-5.5577-.93-1.1909-.93-2.2495.13-3.4404 1.06-1.3233.93-2.2496-.13-3.3082s-1.06-1.9849.13-3.4405c.93-1.1909 1.19-2.7788.66-3.7051-1.58-2.5142-1.72-8.8659-.26-9.7922.66-.3969.53-1.5879-.4-2.6465-1.19-1.4556-1.19-2.3819-.13-3.4405s1.19-1.9849.13-3.3081c-1.06-1.191-1.06-2.2496 0-3.4405 1.06-1.3233.93-2.2495-.13-3.3082-1.32-1.3232-1.32-2.2495-.13-4.10207 1.06-1.72024 1.19-2.77885.13-3.83746s-1.06-1.98489.27-3.5728c1.45-1.720244-5.83-1.984896-71.858-1.984896h-73.441l-.794 3.308156c-1.059 4.10211-3.573 4.36676-3.044.39698.397-4.366767-3.043-4.366767-16.276.13232zm19.188 12.04167c.794 2.6465 0 5.2931-1.721 5.2931-.529 0-.926-1.8526-.926-3.9698 0-4.4991 1.456-5.2931 2.647-1.3233zm.264 15.7468c-.264 8.7336-1.058 10.4538-3.572 7.4103-1.324-1.4556-1.324-2.3819-.133-3.8375 1.191-1.3232 1.191-2.1172.133-2.7788-1.059-.6616-1.059-1.4556-.133-2.5142.794-.9263 1.059-2.1172.662-2.5142-1.323-1.1909.529-5.1607 1.985-4.3668.661.397 1.058 4.3668 1.058 8.6012zm-.132 12.174c1.323 2.2496-1.72 4.7638-3.573 2.9112-1.588-1.5879-.529-4.3667 1.456-4.3667.661 0 1.588.6616 2.117 1.4555zm.132 7.278c.927 2.3819-2.249 5.0284-4.102 3.1758-1.455-1.4556-.132-5.293 1.853-5.293.794 0 1.72.9263 2.249 2.1172zm.397 7.8072c0 2.1173-3.573 3.7052-4.763 1.8526-.927-1.5879 1.984-5.4254 3.572-4.3668.662.397 1.191 1.4556 1.191 2.5142zm-41.021 27.1269c0 .6616-.926 1.3233-1.985 1.3233-1.058 0-1.985-.6617-1.985-1.3233 0-.794.927-1.3233 1.985-1.3233 1.059 0 1.985.5293 1.985 1.3233zm-11.909 97.6567c0 1.72-1.588 2.911-2.911 2.117-1.324-.794-.133-3.176 1.72-3.176.662 0 1.191.53 1.191 1.059zm20.907 1.72c-.264.794-1.058 1.324-1.72 1.324s-1.455-.53-1.72-1.324.529-1.455 1.72-1.455 1.985.661 1.72 1.455zm28.715 67.09c0 2.382-2.646 1.985-3.043-.53-.397-1.323.132-1.985 1.323-1.588.926.397 1.72 1.324 1.72 2.118zm.132 5.69c1.324 2.249-1.72 4.763-3.572 2.911-1.588-1.588-.53-4.367 1.455-4.367.662 0 1.588.662 2.117 1.456zm-.793 10.453c-2.382 1.456-3.176.794-2.118-2.117.662-1.852 1.191-1.985 2.514-.661 1.191 1.191 1.191 1.852-.396 2.778z"/><path d="m1014.11 9.19786c-.26 4.89604 0 12.30634.53 16.27614.53 4.6314.4 7.5426-.53 8.0719-.92.6616-.92 1.0586 0 1.7202.8.5293 1.33 3.9698 1.06 8.2042-.26 3.9698.13 7.5426.66 7.9396.67.397.4 1.8526-.39 3.1758-1.33 1.9849-1.33 2.9112 0 4.2345 1.06 1.0586 1.06 1.9849.13 3.1758-1.06 1.3233-.27 1.9849 3.44 3.0435 5.95 1.5879 21.57 15.0852 22.63 19.452.92 3.3081 2.51 4.1021 3.83 1.8525.67-1.0586 1.59-.9263 2.92.1323 1.58 1.3233 2.11 1.3233 3.04-.1323.66-.9263 1.98-1.3232 3.31-.7939 1.32.3969 3.17.1323 4.1-.6617 1.46-1.1909 2.38-1.0586 3.97.2647 1.72 1.3232 2.25 1.3232 3.18 0 .52-1.0586 2.11-1.4556 3.83-.794 1.72.5293 2.78.2647 2.78-.6616s.8-1.0586 2.38-.1323c1.72.9263 2.91.9263 3.97-.1324 1.06-1.0586 1.99-1.0586 3.31 0 1.32 1.0587 2.12 1.191 3.31 0 .79-.7939 2.38-.9262 3.84-.3969 1.32.6616 3.04.9262 3.7.7939.8-.2646 3.71-.5293 6.62-.6616 5.03-.1323 5.29-.2647 4.89-4.1021-.53-5.1607-7.8-22.0985-14.82-34.2725-8.99-15.6145-15.74-22.4955-28.18-28.4501-13.63-6.48401-34.27-14.15893-41.55-15.349865l-5.43-.793957z"/><path d="m1079.09 183.471c-.27.397-2.65.927-5.3 1.191-2.51.265-5.29.927-6.22 1.456-.92.529-2.51.265-3.57-.529-1.46-1.191-1.99-1.191-1.99-.133 0 1.985-3.57 1.853-4.36-.264-.4-1.191-.93-1.191-2.65.264-1.72 1.324-2.64 1.456-4.1.265-1.32-1.191-2.12-1.059-3.44.529-1.19 1.456-2.25 1.588-4.24.53-2.11-1.059-3.04-1.059-3.83.264-.8 1.456-1.46 1.456-2.78.133-2.65-2.647-3.31-1.853-3.97 5.028-.4 4.102-2.12 8.998-4.5 12.836-3.31 5.425-4.9 6.616-10.98 8.468-4.5 1.324-6.49 2.515-5.56 3.176 1.06.53 1.32 2.25.92 4.102-.52 1.985-.26 3.176.67 3.176.92 0 1.19 1.191.66 3.176-.4 1.853-.27 3.705.53 4.102.92.529.92 1.588 0 3.308-.93 1.721-.93 2.779.13 3.441.79.397 1.19 1.985.79 3.308-.39 1.323-.26 2.779.4 3.176.53.397.93 3.176.79 6.219-.26 3.176.27 6.749 1.06 7.94.93 1.455.8 2.779-.26 4.102-.93.926-1.06 2.249-.53 2.779.53.529.93 3.175.93 5.822 0 4.234.39 4.896 3.44 5.293 4.5.529 31.23-8.072 42.47-13.762 7.81-3.97 9.4-5.425 12.44-11.512 6.35-12.307 18.92-49.49 21.04-61.532l.93-5.558h-7.28c-4.1 0-8.2-.264-9.13-.661-1.06-.397-2.12-.397-2.51-.133z"/><path d="m476.778.335283c-.513.896877-2.307 1.153127-3.844.768747-1.794-.512498-3.203-.128123-3.588.89688-.384 1.15312-1.153 1.15312-3.203 0-2.05-1.281253-2.69-1.153128-3.331.38437-.512 1.40937-1.281 1.5375-3.203.5125-1.794-.89687-2.819-.89687-3.331 0-.513.76875-1.922 1.025-3.203.64062-1.282-.38437-2.691-.25625-3.075.5125-.385.64063-3.204 1.025-6.15.76875-3.075-.12812-6.15.25625-7.047.89688-.897.64062-2.307.76875-3.075.25625-2.05-1.15313-8.713-1.15313-11.916.25625-1.666.64062-2.691.38437-3.075-.64063s-1.025-.89687-2.178.76875c-1.409 1.79375-2.05 1.92187-3.588.64063-1.409-1.15313-2.178-1.28125-2.818-.25625-.641 1.02499-1.41 1.02499-2.691-.12813-1.281-1.025-2.178-1.15312-3.587 0-1.282 1.15312-2.05 1.025-3.332-.5125-1.409-1.79375-1.793-1.66562-3.203.25625-1.537 2.05-1.922 2.05-4.1.25625-2.819-2.5625-9.225-3.84374-13.069-2.81875l-2.946.76875.768 121.2066c.897 135.171 1.282 150.931 4.1 148.624 1.282-1.025 2.307-1.025 3.46 0 1.281 1.025 2.178.897 3.203-.128s1.922-1.025 3.203 0c1.281 1.153 2.05 1.153 3.203 0 1.025-1.025 1.922-1.025 3.203 0 1.281 1.153 2.05 1.153 3.203 0 1.025-1.025 1.922-1.025 3.203 0 1.282 1.153 2.179 1.025 3.332-.128s1.793-1.153 2.69.256c.897 1.538 1.41 1.538 3.075.257 1.538-1.282 2.563-1.41 3.716-.257 1.281 1.025 2.178.897 3.203-.128s1.922-1.025 3.459.257c1.538 1.281 2.307 1.281 3.844 0 1.538-1.282 2.306-1.282 3.844 0 1.537 1.281 2.306 1.281 3.844 0 1.025-.769 2.434-1.154 3.203-.641.897.641 1.153-2.178.769-9.225-1.282-19.603-2.179-213.0718-1.025-213.0718.64 0 4.484 4.3563 8.456 9.6094 17.425 23.1906 47.662 56.3754 98.784 108.2654 62.269 63.294 84.691 87.381 95.325 103.013 3.972 5.765 4.356 5.893 6.534 3.971 1.538-1.281 2.563-1.665 3.075-.768.641.897 1.666.897 3.332-.128 1.793-1.154 2.818-1.154 4.1 0 1.409 1.153 2.178 1.153 3.331 0 1.025-1.025 1.922-1.025 3.331.128 1.281 1.153 2.05 1.153 2.691.128.512-.897 2.306-1.153 3.843-.769 1.666.384 3.46.128 3.844-.512.641-1.025 1.41-.897 2.691.128s2.306 1.025 3.459.128c1.025-.897 2.306-.897 3.46-.256 1.153.64 2.562.64 3.587-.257 1.281-1.153 2.05-1.025 2.819.257.897 1.409 1.409 1.409 3.075.128 1.537-1.282 2.562-1.41 3.715-.257 1.282 1.025 2.179.897 3.204-.128s1.921-1.025 3.459.257c1.537 1.281 2.306 1.281 3.844 0 1.537-1.282 2.306-1.282 3.843 0 1.538 1.281 2.307 1.281 3.844 0 1.025-.769 2.435-1.025 3.331-.513 1.154.641 1.282-4.869.641-22.678-.384-12.941-1.153-73.544-1.537-134.787-.641-85.9722-1.154-110.82847-2.435-109.80347-1.025.76875-1.922.76875-2.947-.25625s-1.922-1.025-3.587.38437c-1.794 1.40937-2.306 1.40937-3.588-.38437-1.409-1.92188-1.665-1.92188-3.075 0-1.409 2.04999-1.537 2.04999-3.203 0-1.537-1.92188-1.794-1.92188-3.075 0-1.025 1.79374-1.665 1.92187-3.331.5125-1.409-1.15313-2.178-1.28125-2.819-.25625-.64 1.02499-1.409 1.02499-2.69-.12813-1.41-1.15312-2.307-1.025-3.844.25625-1.666 1.40937-2.178 1.28125-3.331-.64062-1.154-2.17813-1.282-2.17813-2.947.12812-1.538 2.05-1.922 2.05-4.1.25625-2.691-2.43437-9.225-3.84374-12.941-2.81875l-2.819.64063.769 96.34972.769 96.222-19.603-20.5c-10.891-11.275-36.388-37.669-56.888-58.681-70.981-72.9032-91.097-95.0689-100.834-111.08447-2.691-4.6125-4.997-7.174996-5.509-6.406247z"/><path d="m69.2065 2.84669c-16.9377 4.63141-38.7715 14.42351-46.1818 20.77521-2.3818 1.9849-6.087 7.1456-8.3365 11.6447-4.6314 9.1305-12.43866 38.5069-13.761918 51.7395l-.926282 8.7335 5.82235-.2647c3.17582-.1323 6.48395 0 7.14565.1324.7939.2646 2.3818 0 3.7051-.6617 1.3232-.5293 3.0435-.2646 3.9698.5293 1.3232.9263 2.2495.9263 3.1758 0s2.2495-1.0586 3.3081-.397c.9263.5294 3.8375 1.0587 6.3517 1.191 2.5142 0 5.4254.5293 6.3516 1.0586.9263.6616 2.5142.5293 3.4405-.2647 1.3233-1.0586 2.2496-.9262 3.4405.5293 1.4556 1.7203 1.9849 1.7203 2.7788.397.9263-1.3232 1.7203-1.3232 3.5729-.1323 1.9848 1.1909 2.9111 1.1909 4.1021 0 1.3232-1.1909 1.9849-1.0586 3.4404.794 1.9849 2.6462 2.1173 2.1172 3.9698-10.9831.9263-6.484 2.9112-10.1891 7.5426-14.6882 10.8507-10.3214 12.7033-10.4538 93.8193-10.0568l69.603.2647.133-4.2345c.132-2.3818-.397-4.6314-1.059-5.0284-.926-.5293-.926-1.7202 0-3.1758.794-1.5879.662-2.9112-.265-3.8374-1.058-1.0586-1.058-1.9849.133-3.4405.926-1.1909 1.191-2.7789.661-3.7051-1.587-2.5142-1.72-8.8659-.264-9.7922.661-.397.529-1.5879-.397-2.6465-1.059-1.3233-1.059-2.3819-.133-3.5728.927-1.0586.927-2.3819.265-3.5728s-.662-2.5142.265-3.5728c.926-1.1909.926-2.2495-.265-3.7051s-1.323-2.5142-.132-3.70516c1.058-1.32326.926-2.24955-.133-3.30815-1.058-1.05861-1.058-1.9849.265-3.57281 1.456-1.720236-5.425-1.984888-68.545-1.984888h-70.1326l-.794 3.308148c-1.0586 4.10211-3.5728 4.36676-3.0435.26465.2647-2.64652-.2646-2.911168-7.0132-3.17582-3.9698-.132326-11.1154.79396-15.8792 2.11722zm26.4652 14.68821c0 1.3232-.5293 2.9112-1.3232 3.3081-.794.5293-1.3233-.9263-1.3233-3.3081 0-2.3819.5293-3.8375 1.3233-3.3082.7939.397 1.3232 1.9849 1.3232 3.3082zm-.6616 14.8205c-.397 10.1891-.2646 9.6598-2.6465 7.6749-1.5879-1.3232-1.7202-2.1172-.5293-3.4405 1.1909-1.4556 1.0586-2.3818 0-3.7051-1.1909-1.3233-1.1909-2.1172-.1323-2.7788.7939-.5294 1.1909-1.8526.7939-2.9112-.9263-2.3819.2647-4.7638 1.8526-3.7051.5293.3969.9263 4.3667.6616 8.8658zm.6616 12.174c0 2.7788-2.7788 4.1021-3.9697 1.9849-.6617-.9263-.794-2.2496-.5293-2.7789 1.1909-1.8525 4.499-1.1909 4.499.794zm-.2646 10.3214c-.2647 5.5577-1.8526 8.2042-4.1021 6.7487-.5293-.2647-.397-1.4556.5293-2.5142 1.1909-1.4556 1.1909-2.2496-.1323-3.8375-1.9849-2.3819-.794-5.9547 1.8525-5.9547 1.4556 0 1.9849 1.4556 1.8526 5.5577z"/><path d="m239.907 7.87473c-.265 9.39517-.265 8.33657.397 27.25917.265 8.4689.926 15.8791 1.323 16.2761.397.5293.133 1.8526-.661 3.1758-1.191 1.8526-1.191 2.9112.132 4.3668 1.059 1.3232 1.191 2.2495.132 2.9112-2.646 1.5879-1.323 2.9111 3.705 3.8374 5.955.9263 17.07 9.9245 18.261 14.8205.927 3.3082 2.515 4.1021 3.838 1.8526.662-1.0586 1.588-.9263 2.911.1323 1.588 1.3233 2.117 1.3233 3.044-.1323.661-.9263 1.984-1.3233 3.308-.794 1.323.397 3.176.1324 4.102-.6616 1.455-1.1909 2.382-1.0586 3.97.2647 1.72 1.3232 2.249 1.3232 3.175-.1324.662-.9263 1.985-1.3232 3.309-.7939 1.323.397 3.043.2646 3.969-.5293 1.191-1.0586 1.985-1.0586 2.647 0s1.455 1.0586 2.779-.1324c1.323-1.0586 2.382-1.0586 3.573 0 1.323 1.0587 2.249.9263 3.308-.1323.794-.7939 2.382-.9263 3.837-.397 1.323.6617 3.044.9263 3.705.794.794-.2647 3.705-.5293 6.617-.6616 5.16-.1324 5.293-.2647 4.896-4.7638-.397-5.69-8.072-24.6126-13.762-34.1401-7.675-12.7033-13.63-18.3933-25.407-23.951-13.497-6.48398-34.14-14.15889-41.286-15.349823l-5.557-.793956z"/><path d="m1.72021 98.7827c0 .7939 1.45559 4.1023 3.30816 7.2783 1.85256 3.043 3.30815 6.484 3.30815 7.41s1.19093 1.985 2.77888 2.382c1.9849.529 2.5142 1.455 1.9849 3.308-.5294 1.72-.1324 2.911 1.1909 3.44 1.1909.397 1.7202 1.456 1.3232 2.118-.5293.794-.1323 2.249.6617 3.308.9263 1.058 1.3232 2.911.7939 3.97-.3969 1.19.1324 2.381 1.3233 2.911 1.3233.397 1.8526 1.72 1.4556 3.308s.1323 2.911 1.3232 3.308c1.191.529 1.7203 1.72 1.191 3.705s-.1323 3.308 1.0586 3.705c1.0586.397 2.1172 2.117 2.3819 3.838.2646 2.382 1.7202 3.308 6.8809 4.631 11.5124 2.779 32.4199 5.425 66.957 8.469 32.1555 2.779 36.1245 2.779 86.0115 1.323 50.946-1.455 112.478-.794 112.478 1.324 0 1.852-2.382 2.646-3.309 1.19-.661-1.058-1.455-.926-2.778.133-1.456 1.191-2.382 1.191-3.441.132s-2.117-.926-3.705.132c-1.853 1.059-2.911 1.059-4.367-.132-1.455-1.323-2.249-1.191-3.573.397-1.323 1.588-2.117 1.72-3.44.529-1.456-1.191-2.382-1.058-3.838.133-1.587 1.323-2.381 1.323-3.837 0-2.382-1.853-3.044 1.588-3.837 18.261-.397 9.527-1.059 11.644-4.367 16.54-2.911 4.103-5.426 6.087-9.792 7.411-7.278 2.249-7.411 2.249-5.426 4.631 1.191 1.323 1.191 2.117.133 2.779-1.059.662-1.059 1.456.132 2.779.794.926 1.059 2.779.662 3.97-.53 1.191-.133 3.043.661 3.969 1.191 1.456 1.191 2.25 0 3.706-1.191 1.323-1.058 1.984.397 2.514 1.323.529 1.72 2.514 1.588 6.484-.265 3.176.265 6.087.926 6.616.927.529.794 1.588-.397 3.043-1.323 1.588-1.323 2.515-.397 3.044.927.529 1.324 3.97 1.191 8.204-.529 10.586.133 11.91 5.293 11.91 8.734 0 23.951-4.103 34.537-9.263 13.895-6.881 23.422-16.938 31.626-33.743 7.675-15.88 10.322-29.509 9.528-49.226-.662-12.571-1.191-16.011-4.235-21.966-1.852-3.97-3.44-7.807-3.44-8.601 0-.926-.926-1.588-2.117-1.588-1.456 0-1.853-.794-1.191-2.646.529-1.588.264-2.647-.662-2.647-1.455 0-4.367-5.822-4.631-8.998 0-.926-.794-2.25-1.853-2.779-1.058-.662-1.455-2.117-1.058-3.176.397-1.191-.133-2.382-1.191-2.779-1.059-.397-1.853-1.852-1.853-3.175 0-1.324-1.455-5.426-3.308-8.999-2.382-4.631-4.367-6.748-6.881-7.41-5.161-1.456-71.456-3.44-165.143-5.028-78.8662-1.324-104.9344-2.647-120.6812-5.8227-5.82239-1.1909-8.33659-1.1909-8.33659-.2646zm301.96779 69.8683c-1.191 1.191-1.985 1.191-3.176 0s-.926-1.588 1.588-1.588c2.515 0 2.779.397 1.588 1.588z"/><path d="m6.74839 199.88c-4.89607.53-4.89607 3.97.39698 19.055 5.55773 16.409 10.71843 27.392 15.21753 32.685 4.499 5.425 18.6579 12.306 41.1534 19.849 18.3933 6.351 22.2308 6.748 23.4217 2.514.5293-2.514.9263-2.647 2.3819-1.191 1.3232 1.456 1.3232 1.852.1323 2.382-.9263.397-1.7203 1.058-1.7203 1.455 0 .53 33.4781.927 74.5001.927h74.367l.264-4.235c.265-2.382-.264-4.631-1.058-5.028-.926-.662-.794-1.588.264-2.911 1.324-1.456 1.324-2.118 0-2.912-1.323-.926-1.323-1.72-.264-3.837.794-1.456.926-3.043.397-3.44-1.323-.794-1.323-9.528.132-10.851.529-.529.265-1.72-.529-2.779-1.059-1.191-1.059-2.25 0-3.44 1.058-1.324.926-2.25-.133-3.309-1.058-1.058-1.058-1.985 0-3.308 1.191-1.323 1.191-2.117 0-3.308-1.058-1.059-1.058-1.985 0-3.308 1.059-1.323 1.059-2.25.133-3.176-1.059-1.059-.926-2.249.132-4.367l1.588-3.043-11.645.926c-22.495 1.853-127.4296.926-141.8532-1.323-2.5142-.397-7.0133-3.044-10.983-6.616-5.4254-4.764-7.1457-5.69-8.6012-4.367-1.4556 1.191-2.2496 1.191-3.8375-.133-1.4556-1.19-2.3819-1.323-3.8375-.132-1.3232 1.191-2.1172 1.059-3.4404-.397-1.191-1.588-2.1173-1.72-3.9698-.529-1.8526 1.191-2.9112 1.191-4.2345 0-1.4555-1.191-2.2495-1.191-3.4404 0-1.0586 1.058-1.9849 1.058-3.4405-.132-1.3233-1.059-2.1172-1.191-2.7789-.133-.3969.794-1.5879.926-2.3818.397-.9263-.529-2.7789-1.191-4.2345-1.323-6.2193-.662-18.7903-1.059-22.09841-.662zm82.96841 52.931c0 2.382-2.6465 1.985-3.0435-.53-.3969-1.323.1324-1.985 1.3233-1.588.9263.397 1.7202 1.324 1.7202 2.118zm.1324 5.69c.3969.794.1323 2.117-.6617 2.911-1.1909 1.191-1.8525 1.058-2.7788-.397-1.191-1.985-.5293-3.97 1.3232-3.97.6617 0 1.588.662 2.1173 1.456zm-.5293 10.718c-1.9849 1.985-3.4405.529-2.3819-2.382.6616-1.72 1.1909-1.985 2.3819-.794 1.1909 1.191 1.1909 1.985 0 3.176z"/></g></svg>